<svg width="365" height="203" viewBox="0 0 365 203" fill="none" xmlns="http://www.w3.org/2000/svg">
<path d="M27.4833 170.83L98.7733 99.5402L103.016 103.783L31.7259 175.073C29.0116 174.449 28.0805 173.518 27.4833 170.83Z" fill="#ECECEC"/>
<path d="M174.539 101.14H100.592V128.029H142.047C157.36 128.029 178.647 101.14 174.539 101.14Z" fill="#DEC865"/>
<path d="M27.6936 101.093H101.641V74.2033H60.1854C44.8732 74.2033 23.5854 101.093 27.6936 101.093Z" fill="#6567AD"/>
<path d="M101.14 27.1654V101.112H128.03V59.6573C128.03 44.345 101.14 23.0573 101.14 27.1654Z" fill="#A8A9D0"/>
<path d="M101.093 175.067V101.12H74.2033V142.576C74.2033 157.888 101.093 179.176 101.093 175.067Z" fill="#A3F0D5"/>
<circle cx="101" cy="100.761" r="8" transform="rotate(-90 101 100.761)" fill="#ECECEC"/>
<circle cx="101" cy="100.761" r="6" transform="rotate(-90 101 100.761)" fill="#A8A9D0"/>
<path d="M188.1 154.54L198.5 102.22H214.18C217.54 102.22 220.5 102.674 223.06 103.58C225.673 104.434 227.7 105.847 229.14 107.82C230.633 109.794 231.38 112.38 231.38 115.58C231.38 120.114 230.34 123.82 228.26 126.7C226.18 129.527 223.353 131.607 219.78 132.94C216.26 134.274 212.287 134.94 207.86 134.94H200.58L196.74 154.54H188.1ZM202.02 128.06H208.58C213.167 128.06 216.687 127.127 219.14 125.26C221.593 123.34 222.82 120.514 222.82 116.78C222.82 114.114 221.94 112.167 220.18 110.94C218.42 109.714 215.887 109.1 212.58 109.1H205.7L202.02 128.06ZM243.368 155.5C239.955 155.5 237.235 154.274 235.208 151.82C233.182 149.314 232.168 145.767 232.168 141.18C232.168 137.394 232.755 133.874 233.928 130.62C235.102 127.367 236.675 124.54 238.648 122.14C240.622 119.687 242.862 117.767 245.368 116.38C247.928 114.994 250.568 114.3 253.288 114.3C255.208 114.3 256.968 114.807 258.568 115.82C260.222 116.78 261.475 118.114 262.328 119.82H262.488L264.168 115.26H271.048L263.208 154.54H256.168L256.568 149.1H256.328C254.515 151.02 252.462 152.567 250.168 153.74C247.875 154.914 245.608 155.5 243.368 155.5ZM246.888 148.46C248.595 148.46 250.328 147.954 252.088 146.94C253.902 145.874 255.608 144.167 257.208 141.82L260.408 126.14C259.555 124.434 258.542 123.207 257.368 122.46C256.195 121.714 254.995 121.34 253.768 121.34C251.582 121.34 249.502 122.194 247.528 123.9C245.608 125.607 244.035 127.874 242.808 130.7C241.635 133.527 241.048 136.62 241.048 139.98C241.048 142.86 241.555 144.994 242.568 146.38C243.635 147.767 245.075 148.46 246.888 148.46ZM282.724 155.5C280.431 155.5 278.751 154.94 277.684 153.82C276.617 152.647 276.084 151.074 276.084 149.1C276.084 147.874 276.271 146.487 276.644 144.94L286.004 98.0602H294.564L285.124 145.34C285.071 145.714 285.017 146.034 284.964 146.3C284.964 146.514 284.964 146.7 284.964 146.86C284.964 147.98 285.417 148.54 286.324 148.54C286.591 148.54 286.804 148.54 286.964 148.54C287.124 148.487 287.391 148.407 287.764 148.3L287.604 154.7C287.017 154.914 286.324 155.1 285.524 155.26C284.724 155.42 283.791 155.5 282.724 155.5ZM307.101 155.5C304.648 155.5 302.115 154.834 299.501 153.5C296.888 152.114 294.835 150.274 293.341 147.98L298.461 143.82C299.741 145.474 301.155 146.78 302.701 147.74C304.301 148.647 305.981 149.1 307.741 149.1C309.608 149.1 311.208 148.62 312.541 147.66C313.928 146.7 314.621 145.474 314.621 143.98C314.621 142.754 314.061 141.687 312.941 140.78C311.821 139.874 309.928 138.674 307.261 137.18C304.968 135.9 303.048 134.407 301.501 132.7C299.955 130.94 299.181 128.887 299.181 126.54C299.181 124.14 299.821 122.034 301.101 120.22C302.381 118.354 304.088 116.914 306.221 115.9C308.355 114.834 310.701 114.3 313.261 114.3C315.875 114.3 318.221 114.834 320.301 115.9C322.381 116.914 324.195 118.274 325.741 119.98L320.861 124.46C319.901 123.394 318.781 122.514 317.501 121.82C316.221 121.127 314.781 120.78 313.181 120.78C311.421 120.78 309.981 121.26 308.861 122.22C307.795 123.18 307.261 124.354 307.261 125.74C307.261 127.127 307.955 128.274 309.341 129.18C310.781 130.034 312.328 130.94 313.981 131.9C316.808 133.447 318.968 135.047 320.461 136.7C321.955 138.3 322.701 140.38 322.701 142.94C322.701 145.447 322.008 147.66 320.621 149.58C319.288 151.447 317.448 152.914 315.101 153.98C312.755 154.994 310.088 155.5 307.101 155.5Z" fill="#6567AD"/>
</svg>
